PathFileType	4	(X/Y/Z)	C:/Users/opensim2020/Desktop/walking_exp_matlab/subject01_walking10_straight_03.trc																																																																																																																															
DataRate	CameraRate	NumFrames	NumMarkers	Units	OrigDataRate	OrigDataStartFrame	OrigNumFrames																																																																																																																											
100	100	6	43	mm	100	3048	317																																																																																																																											
Frame#	Time	LFHD			RFHD			LBHD			RBHD			C7			T10			CLAV			STRN			RBAK			LSHO			LUPA			LELB			LFRM			LWRA			LWRB			LFIN			RSHO			RUPA			RELB			RFRM			RWRA			RWRB			RFIN			LASI			RASI			LPSI			RPSI			LTHI			LKNE			LTIB			LANK			LHEE			LTOE			RTHI			RKNE			RTIB			RANK			RHEE			RTOE			*39			*40			*41			*42		
		X1	Y1	Z1	X2	Y2	Z2	X3	Y3	Z3	X4	Y4	Z4	X5	Y5	Z5	X6	Y6	Z6	X7	Y7	Z7	X8	Y8	Z8	X9	Y9	Z9	X10	Y10	Z10	X11	Y11	Z11	X12	Y12	Z12	X13	Y13	Z13	X14	Y14	Z14	X15	Y15	Z15	X16	Y16	Z16	X17	Y17	Z17	X18	Y18	Z18	X19	Y19	Z19	X20	Y20	Z20	X21	Y21	Z21	X22	Y22	Z22	X23	Y23	Z23	X24	Y24	Z24	X25	Y25	Z25	X26	Y26	Z26	X27	Y27	Z27	X28	Y28	Z28	X29	Y29	Z29	X30	Y30	Z30	X31	Y31	Z31	X32	Y32	Z32	X33	Y33	Z33	X34	Y34	Z34	X35	Y35	Z35	X36	Y36	Z36	X37	Y37	Z37	X38	Y38	Z38	X39	Y39	Z39	X40	Y40	Z40	X41	Y41	Z41	X42	Y42	Z42	X43	Y43	Z43
																																																																																																																																		
199	1.98	441.04449	1675.92981	1423.49219	476.02725	1677.16211	1531.61072	326.25415	1636.51111	1453.38245	360.40839	1636.84802	1568.33521	292.58795	1433.8092	1477.23401	264.92551	1139.8031	1474.09973	437.39462	1368.54822	1472.02783	483.3598	1215.1217	1458.34985	244.47595	1234.23828	1545.92322	377.17038	1406.0918	1313.84729	357.92236	1224.36414	1222.13574	353.37698	1070.64172	1216.96069	416.82507	974.65497	1190.55408	526.17157	887.87402	1202.81055	473.03806	866.41663	1184.13318	538.41663	812.13361	1171.96252	375.9422	1388.49097	1626.04199	313.3501	1186.41052	1717.8103	310.42999	1062.68054	1717.88416	330.21722	944.89923	1749.46057	408.77835	827.3045	1747.61682	356.46002	826.34155	1771.48621	391.14084	746.62561	1775.07458	431.18204	932.16827	1354.73218	445.57584	937.5282	1570.82922	248.85942	944.94189	1418.67859	259.14706	951.49133	1563.71423	419.97562	600.32104	1290.33789	412.26035	467.11328	1296.92334	268.09735	350.98074	1290.07617	112.33699	197.40059	1339.22607	68.27322	209.32199	1395.47839	167.8275	58.79153	1342.84546	420.56424	606.07904	1624.33984	451.10501	451.38577	1594.12549	414.48608	277.42889	1594.6156	410.60394	74.16971	1538.23828	364.32758	36.29601	1485.69031	552.95789	38.24977	1538.06372	461.68591	1712.09924	1512.41614	1973.21875	1023.39862	-3102.01929	2012.5968	1022.04578	-3140.69312	NaN	NaN	NaN
200	1.99	448.129	1676.16748	1424.67737	483.36426	1677.3551	1532.75293	333.31625	1636.86523	1454.81006	367.75854	1637.15759	1569.66125	299.45282	1434.2572	1478.61743	271.38229	1140.25916	1475.21436	444.11191	1368.68506	1473.26428	489.74039	1215.1969	1459.57776	250.90222	1234.8479	1547.23438	383.84592	1406.49316	1315.10669	363.89355	1224.57983	1223.69556	358.59476	1070.92615	1219.16907	420.53854	974.00067	1192.69873	528.6012	885.52222	1205.13379	475.28992	864.82159	1186.40515	539.55988	809.52673	1174.23682	382.92212	1388.83215	1627.3634	321.65787	1186.46301	1719.45251	319.35748	1062.65149	1719.88916	340.46609	945.14917	1751.65796	420.14374	828.38055	1749.67236	367.97711	826.97198	1773.89832	403.50815	747.75909	1777.71118	437.65146	932.42151	1356.12927	451.30087	937.82178	1572.46338	254.74611	945.42767	1419.11865	264.86429	951.61627	1564.12476	431.80099	601.84967	1290.64978	426.64951	468.87204	1297.54529	282.92825	352.18121	1290.81213	127.19215	198.02679	1340.10718	82.74342	209.31206	1396.45947	184.474	60.45866	1342.51453	425.02426	606.1394	1625.25598	454.1413	451.10623	1594.71118	416.2851	277.34381	1594.94275	410.74097	74.21371	1538.32336	364.29807	36.37743	1485.72302	552.98083	38.19972	1538.06396	468.99612	1712.27612	1513.52234	1973.12708	1023.5321	-3101.90991	2012.61035	1022.06927	-3140.69824	NaN	NaN	NaN
201	2	455.19031	1676.36499	1425.71497	490.65497	1677.4917	1533.7356	340.69583	1637.08508	1456.22095	375.08853	1637.4668	1570.92627	306.24747	1434.7168	1479.8905	277.6011	1140.74744	1476.23792	450.79114	1368.82727	1474.43103	496.08688	1215.27942	1460.71167	257.35468	1235.3877	1548.4054	390.44498	1406.79736	1316.29785	369.70251	1224.81067	1225.21399	363.79919	1071.20935	1221.17334	424.18561	973.45337	1194.76001	530.81598	883.26593	1207.33008	477.29062	863.35425	1188.49695	540.86279	807.22766	1176.6217	389.72437	1389.04846	1628.53101	329.84396	1186.51038	1720.99158	328.30875	1062.71265	1721.88135	350.71265	945.47681	1753.73926	431.44897	829.47931	1751.65027	379.53387	827.80389	1776.33752	415.82169	748.86749	1780.17188	444.18295	932.84381	1357.49707	456.79309	937.97687	1573.948	261.09521	945.83679	1419.54053	270.41879	952.0459	1564.70935	443.32471	603.46765	1291.12537	440.4805	470.53391	1297.86328	297.66913	353.20609	1291.55103	142.49487	198.12498	1340.93372	97.19103	208.70023	1397.74194	202.56274	62.18316	1342.13342	429.45181	606.01794	1626.06104	456.95883	450.74518	1595.13245	417.85684	277.35129	1595.34338	410.85056	74.25084	1538.37183	364.30292	36.45923	1485.80408	553.0022	38.0114	1538.09192	476.36234	1712.44592	1514.58594	1973.23157	1023.40906	-3101.96313	2012.54028	1022.02081	-3140.79199	NaN	NaN	NaN
202	2.01	462.31433	1676.45398	1426.76257	497.99118	1677.60181	1534.68237	347.54645	1637.55359	1457.42932	382.42548	1637.81812	1572.11365	312.91202	1435.16223	1481.24023	283.83655	1141.32507	1477.14294	457.38315	1369.01758	1475.54321	502.40738	1215.349	1461.8678	263.62057	1235.9696	1549.5481	397.03253	1407.17761	1317.50928	375.55988	1225.08655	1226.63147	368.95627	1071.51794	1223.06006	427.80817	972.9458	1196.73633	532.95044	881.03516	1209.55225	479.11731	862.04169	1190.57996	541.92206	804.81171	1178.72388	396.41821	1389.17041	1629.54688	337.90414	1186.59009	1722.43701	337.12289	1062.74292	1723.68787	360.95746	945.84851	1755.69592	442.80914	830.72876	1753.62024	390.95261	828.5108	1778.4082	428.23132	750.11053	1782.67273	450.702	933.43848	1358.96411	462.68475	938.43683	1575.7948	267.51776	946.38727	1419.95142	276.13095	952.31866	1565.22327	454.68634	605.04633	1291.62268	454.25488	472.11035	1298.57849	312.23361	353.94791	1292.38306	158.13712	197.27367	1342.01111	112.29353	206.55997	1398.99158	221.74078	63.42488	1341.54285	434.09293	606.01697	1626.8009	459.72998	450.54211	1595.68982	419.13333	277.32309	1595.63513	410.83926	74.06888	1538.27747	364.38599	36.74841	1486.00854	553.13428	37.88922	1538.23242	483.69174	1712.54968	1515.49548	1973.01941	1023.87329	-3102.09229	2012.55261	1022.00403	-3140.65894	NaN	NaN	NaN
203	2.02	469.35193	1676.57837	1427.6377	505.36871	1677.69238	1535.54114	354.60736	1637.97046	1458.65393	389.7424	1638.1991	1573.21838	319.53275	1435.5509	1482.43872	290.00946	1141.78369	1477.89771	463.87656	1369.14441	1476.5874	508.64859	1215.50317	1463.0343	269.97729	1236.38135	1550.54077	403.51306	1407.52417	1318.57605	381.2995	1225.37842	1227.979	373.89056	1071.85767	1224.84961	431.38885	972.45624	1198.6189	535.07098	878.96228	1211.68774	480.86932	860.7196	1192.5365	542.83093	802.65839	1180.90527	403.077	1389.58826	1630.74109	345.78452	1186.66589	1723.77869	345.81995	1062.78455	1725.3501	370.90164	946.23083	1757.5636	454.18173	832.08661	1755.578	402.6825	829.63293	1780.90356	440.67462	751.60822	1785.17322	457.45938	934.26508	1360.47986	468.34732	938.67267	1577.35498	273.82837	946.93689	1420.37952	281.96274	952.43256	1565.48987	465.6647	606.61627	1292.24707	467.3826	473.457	1299.05664	326.42352	354.32535	1293.25098	174.37306	195.9292	1343.078	127.75706	203.47073	1400.31335	242.21046	65.17445	1340.94104	439.24927	606.01471	1627.66553	462.42407	450.42456	1596.37903	420.32593	277.38898	1595.92334	411.09766	74.22815	1538.31348	364.42856	36.8976	1486.02515	553.32416	37.847	1538.10669	491.05417	1712.62537	1516.30969	1973.10095	1023.26843	-3101.83423	2012.56067	1022.03394	-3140.68115	NaN	NaN	NaN
204	2.03	476.44885	1676.677	1428.48938	512.65704	1677.74109	1536.27197	361.57648	1638.39063	1459.776	397.02692	1638.57507	1574.22266	326.06915	1436.07056	1483.62891	296.15146	1142.1748	1478.59021	470.29803	1369.35193	1477.60437	514.89459	1215.63892	1464.12634	276.34906	1236.75183	1551.49524	409.93732	1407.8739	1319.65869	387.1673	1225.68652	1229.13965	378.73459	1072.28015	1226.45862	434.88663	972.07764	1200.42761	537.0733	876.88	1213.65601	482.61392	859.5387	1194.41565	543.63721	800.39948	1182.82251	409.60757	1389.82019	1631.75928	353.52972	1186.72473	1725.03723	354.55185	1063.00732	1727.09119	381.08655	946.71436	1759.38281	465.53809	833.52246	1757.48035	413.98816	830.30823	1782.58276	453.06561	753.0896	1787.56482	463.64774	934.84747	1361.92188	474.03534	938.89679	1578.87842	280.18863	947.50018	1420.80444	287.69492	952.69	1566.03064	476.57794	608.22229	1292.69543	480.18597	474.95322	1299.68372	340.56866	354.34586	1294.16663	190.96529	194.03178	1344.23718	143.79099	199.4232	1401.80359	263.35623	65.69384	1339.89331	443.05475	605.91443	1628.13489	464.73907	450.07681	1596.74976	421.41302	277.51501	1596.25732	411.28812	74.35723	1538.36145	364.44174	37.07559	1486.02698	553.36993	37.76694	1538.1947	498.46274	1712.73535	1517.1062	1973.11584	1023.48682	-3101.92065	2012.53918	1022.07574	-3140.58081	NaN	NaN	NaN
